<svg width="103" height="103" viewBox="0 0 103 103" fill="none" xmlns="http://www.w3.org/2000/svg">
<path d="M51.5 16.6562C35.7609 16.6562 23 29.0443 23 44.3236C23 59.6029 35.7609 71.991 51.5 71.991C67.2391 71.991 80 59.6029 80 44.3236C80 29.0443 67.2391 16.6562 51.5 16.6562ZM53.875 46.6292H34.8631C33.5569 46.6292 32.5 45.6032 32.5 44.3352V44.3098C32.5 43.044 33.5569 42.018 34.8631 42.018H49.125V23.5616C49.125 22.2935 50.1819 21.2675 51.4881 21.2675H51.5142C52.8181 21.2675 53.875 22.2935 53.875 23.5616V46.6292Z" fill="#EE405E"/>
<circle cx="51.374" cy="51.374" r="47.874" stroke="#EE405E" stroke-width="7"/>
</svg>
