<svg width="103" height="103" viewBox="0 0 103 103" fill="none" xmlns="http://www.w3.org/2000/svg">
<path d="M33 55.1931H40.2C40.2 59.1061 45.132 62.4393 51 62.4393C56.868 62.4393 61.8 59.1061 61.8 55.1931C61.8 51.2077 58.056 49.7585 50.136 47.8382C42.504 45.918 33 43.5267 33 33.4545C33 26.9691 38.292 21.462 45.6 19.6142V11.7158H56.4V19.6142C63.708 21.462 69 26.9691 69 33.4545H61.8C61.8 29.5415 56.868 26.2083 51 26.2083C45.132 26.2083 40.2 29.5415 40.2 33.4545C40.2 37.4399 43.944 38.8891 51.864 40.8094C59.496 42.7296 69 45.1209 69 55.1931C69 61.6785 63.708 67.1856 56.4 69.0334V76.9318H45.6V69.0334C38.292 67.1856 33 61.6785 33 55.1931Z" fill="#EE405E"/>
<circle cx="51.374" cy="51.374" r="47.874" stroke="#EE405E" stroke-width="7"/>
</svg>
