<svg width="103" height="103" viewBox="0 0 103 103" fill="none" xmlns="http://www.w3.org/2000/svg">
<path d="M73.4133 22.7399C72.78 20.918 71.0067 19.6211 68.9167 19.6211H34.0833C31.9933 19.6211 30.2517 20.918 29.5867 22.7399L23 41.2362V64.3953C23 66.9582 25.1217 69.0271 27.75 69.0271C30.3783 69.0271 32.5 66.9582 32.5 64.3953V62.8514H70.5V64.3953C70.5 66.9274 72.6217 69.0271 75.25 69.0271C77.8467 69.0271 80 66.9582 80 64.3953V41.2362L73.4133 22.7399ZM37.25 53.5877C34.6217 53.5877 32.5 51.5189 32.5 48.9559C32.5 46.393 34.6217 44.3241 37.25 44.3241C39.8783 44.3241 42 46.393 42 48.9559C42 51.5189 39.8783 53.5877 37.25 53.5877ZM65.75 53.5877C63.1217 53.5877 61 51.5189 61 48.9559C61 46.393 63.1217 44.3241 65.75 44.3241C68.3783 44.3241 70.5 46.393 70.5 48.9559C70.5 51.5189 68.3783 53.5877 65.75 53.5877ZM31.8983 35.0605L35.1917 25.7968H67.7767L71.07 35.0605H31.8983Z" fill="#EE405E"/>
<circle cx="51.374" cy="51.374" r="47.874" stroke="#EE405E" stroke-width="7"/>
</svg>
